<?xml version="1.0" encoding="iso-8859-1"?>
<!-- Generator: Adobe Illustrator 19.0.0, SVG Export Plug-In . SVG Version: 6.00 Build 0)  -->
<svg version="1.1" id="Layer_1" xmlns="http://www.w3.org/2000/svg" xmlns:xlink="http://www.w3.org/1999/xlink" x="0px" y="0px"
	 viewBox="0 0 473.931 473.931" style="enable-background:new 0 0 473.931 473.931;" xml:space="preserve">
<circle style="fill:#E8E8DF;" cx="236.966" cy="236.966" r="236.966"/>
<path style="fill:#B1C635;" d="M245.168,52.441c-37.466,90.876-98.042,113.39-98.042,185.726c0,54.151,43.891,98.045,98.042,98.045
	s98.042-43.895,98.042-98.045C343.209,138.333,245.168,52.441,245.168,52.441z"/>
<g>
	<path style="fill:#3E8540;" d="M240.681,332.747c-4.584,38.45-18.391,85.035-57.795,93.742l12.55,0.075
		c39.382-8.703,53.197-55.232,57.791-93.671C253.227,332.897,240.76,332.074,240.681,332.747z"/>
	<path style="fill:#3E8540;" d="M292.98,259.682c-13.111,19.266-26.776,34.114-35.67,42.967c0.561-9.403,0.868-19.861,0.965-31.027
		c4.999-6.088,21.148-26.447,27.341-42.443c7.353-19.016,12.191-69.264,12.191-69.264s-8.924,35.195-15.031,55.872
		c-3.431,11.648-17.53,32.995-24.475,43.098c-0.071-16.318-0.513-33.728-1.175-51.202c2.425-4.935,11.629-23.966,15.154-35.685
		c4.078-13.545,6.249-49.107,6.249-49.107s-4.782,24.999-8.097,39.693c-1.833,8.142-9.897,20.655-14.08,26.776
		c-3.064-66.278-8.647-128.114-8.647-128.114c3.499,52.613,4.378,97.604,3.865,135.081c-5.313-6.279-14.911-18.365-17.141-26.293
		c-4.131-14.698-10.088-39.696-10.088-39.696s2.709,35.562,7.787,49.111c4.475,11.932,16.299,31.472,19.053,35.955
		c-0.408,14.653-1.022,27.955-1.762,39.932c-7.289-8.954-24.52-30.817-28.965-42.798c-7.543-20.258-18.858-54.835-18.858-54.835
		s7.951,49.855,16.696,68.381c7.154,15.165,24.378,33.897,30.406,40.209c-1.205,16.67-2.608,30.323-3.921,41.013
		c-10.63-11.259-35.049-38.009-42.001-53.185c-11.873-25.897-30.102-70.255-30.102-70.255s15.289,64.774,28.58,88.276
		c10.099,17.859,31.902,38.914,41.807,48.011c-1.549,10.6-2.687,15.951-2.687,15.951c1.987-0.838,12.512,0.254,12.512,0.254
		c1.313-4.846,2.346-11.027,3.143-18.234c6.447-6.462,25.53-26.039,36.755-42.319c13.654-19.801,32.553-76.074,32.553-76.074
		S307.258,238.691,292.98,259.682z"/>
</g>
<g>
</g>
<g>
</g>
<g>
</g>
<g>
</g>
<g>
</g>
<g>
</g>
<g>
</g>
<g>
</g>
<g>
</g>
<g>
</g>
<g>
</g>
<g>
</g>
<g>
</g>
<g>
</g>
<g>
</g>
</svg>
